<svg width="296" height="42" viewBox="0 0 296 42" fill="none" xmlns="http://www.w3.org/2000/svg">
<path d="M21.1467 0C9.68885 0 0 9.27793 0 20.8533V42H5.60691V20.8533C5.60691 12.4913 12.6674 5.60691 21.1467 5.60691C29.6261 5.60691 36.6866 12.4913 36.6866 20.8533C36.6866 29.4357 29.7292 36.3931 21.1467 36.3931V42L61.1733 42C72.8523 42 82.32 32.5323 82.32 20.8533C82.32 9.33632 72.9837 0 61.4668 0H21.1467Z" fill="#1F396B"/>
<path d="M94.0902 24V3.63636H102.124C103.669 3.63636 104.985 3.93134 106.072 4.52131C107.159 5.10464 107.987 5.91667 108.558 6.95739C109.134 7.99148 109.423 9.18466 109.423 10.5369C109.423 11.8892 109.131 13.0824 108.548 14.1165C107.964 15.1506 107.119 15.956 106.012 16.5327C104.912 17.1094 103.579 17.3977 102.015 17.3977H96.8942V13.9474H101.319C102.147 13.9474 102.83 13.8049 103.367 13.5199C103.911 13.2282 104.315 12.8272 104.58 12.3168C104.852 11.7997 104.988 11.2064 104.988 10.5369C104.988 9.86079 104.852 9.27083 104.58 8.76704C104.315 8.25663 103.911 7.86222 103.367 7.58381C102.824 7.29877 102.134 7.15625 101.299 7.15625H98.3956V24H94.0902ZM112.219 24V3.63636H120.253C121.791 3.63636 123.104 3.91146 124.191 4.46165C125.284 5.00521 126.116 5.77746 126.686 6.77841C127.263 7.77273 127.551 8.94271 127.551 10.2884C127.551 11.6406 127.26 12.804 126.676 13.7784C126.093 14.7462 125.248 15.4886 124.141 16.0057C123.041 16.5227 121.708 16.7812 120.144 16.7812H114.765V13.321H119.448C120.27 13.321 120.953 13.2083 121.496 12.983C122.04 12.7576 122.444 12.4195 122.709 11.9688C122.981 11.518 123.117 10.9579 123.117 10.2884C123.117 9.61222 122.981 9.04214 122.709 8.57812C122.444 8.11411 122.036 7.76278 121.486 7.52415C120.943 7.27888 120.257 7.15625 119.428 7.15625H116.525V24H112.219ZM123.216 14.733L128.277 24H123.525L118.573 14.733H123.216ZM149.307 13.8182C149.307 16.0388 148.886 17.928 148.044 19.4858C147.209 21.0436 146.069 22.2334 144.624 23.0554C143.185 23.8707 141.568 24.2784 139.772 24.2784C137.962 24.2784 136.338 23.8674 134.9 23.0455C133.461 22.2235 132.324 21.0336 131.489 19.4759C130.654 17.9181 130.236 16.0322 130.236 13.8182C130.236 11.5975 130.654 9.70833 131.489 8.15057C132.324 6.5928 133.461 5.40625 134.9 4.59091C136.338 3.76894 137.962 3.35795 139.772 3.35795C141.568 3.35795 143.185 3.76894 144.624 4.59091C146.069 5.40625 147.209 6.5928 148.044 8.15057C148.886 9.70833 149.307 11.5975 149.307 13.8182ZM144.942 13.8182C144.942 12.3797 144.727 11.1667 144.296 10.179C143.872 9.19129 143.272 8.44224 142.496 7.93182C141.721 7.4214 140.812 7.16619 139.772 7.16619C138.731 7.16619 137.823 7.4214 137.047 7.93182C136.272 8.44224 135.668 9.19129 135.238 10.179C134.813 11.1667 134.601 12.3797 134.601 13.8182C134.601 15.2566 134.813 16.4697 135.238 17.4574C135.668 18.4451 136.272 19.1941 137.047 19.7045C137.823 20.215 138.731 20.4702 139.772 20.4702C140.812 20.4702 141.721 20.215 142.496 19.7045C143.272 19.1941 143.872 18.4451 144.296 17.4574C144.727 16.4697 144.942 15.2566 144.942 13.8182ZM152.496 3.63636H157.806L163.414 17.3182H163.653L169.261 3.63636H174.57V24H170.394V10.7457H170.225L164.955 23.9006H162.112L156.842 10.696H156.673V24H152.496V3.63636ZM196.831 13.8182C196.831 16.0388 196.41 17.928 195.568 19.4858C194.733 21.0436 193.592 22.2334 192.147 23.0554C190.709 23.8707 189.092 24.2784 187.295 24.2784C185.485 24.2784 183.861 23.8674 182.423 23.0455C180.984 22.2235 179.848 21.0336 179.012 19.4759C178.177 17.9181 177.76 16.0322 177.76 13.8182C177.76 11.5975 178.177 9.70833 179.012 8.15057C179.848 6.5928 180.984 5.40625 182.423 4.59091C183.861 3.76894 185.485 3.35795 187.295 3.35795C189.092 3.35795 190.709 3.76894 192.147 4.59091C193.592 5.40625 194.733 6.5928 195.568 8.15057C196.41 9.70833 196.831 11.5975 196.831 13.8182ZM192.466 13.8182C192.466 12.3797 192.25 11.1667 191.819 10.179C191.395 9.19129 190.795 8.44224 190.02 7.93182C189.244 7.4214 188.336 7.16619 187.295 7.16619C186.254 7.16619 185.346 7.4214 184.571 7.93182C183.795 8.44224 183.192 9.19129 182.761 10.179C182.337 11.1667 182.125 12.3797 182.125 13.8182C182.125 15.2566 182.337 16.4697 182.761 17.4574C183.192 18.4451 183.795 19.1941 184.571 19.7045C185.346 20.215 186.254 20.4702 187.295 20.4702C188.336 20.4702 189.244 20.215 190.02 19.7045C190.795 19.1941 191.395 18.4451 191.819 17.4574C192.25 16.4697 192.466 15.2566 192.466 13.8182ZM206.5 24V3.63636H214.534C216.079 3.63636 217.395 3.93134 218.482 4.52131C219.569 5.10464 220.398 5.91667 220.968 6.95739C221.544 7.99148 221.833 9.18466 221.833 10.5369C221.833 11.8892 221.541 13.0824 220.958 14.1165C220.374 15.1506 219.529 15.956 218.422 16.5327C217.322 17.1094 215.989 17.3977 214.425 17.3977H209.304V13.9474H213.729C214.558 13.9474 215.24 13.8049 215.777 13.5199C216.321 13.2282 216.725 12.8272 216.99 12.3168C217.262 11.7997 217.398 11.2064 217.398 10.5369C217.398 9.86079 217.262 9.27083 216.99 8.76704C216.725 8.25663 216.321 7.86222 215.777 7.58381C215.234 7.29877 214.544 7.15625 213.709 7.15625H210.806V24H206.5ZM225.788 24H221.174L228.204 3.63636H233.752L240.772 24H236.158L231.058 8.28977H230.898L225.788 24ZM225.499 15.9957H236.397V19.3565H225.499V15.9957ZM243.223 24V3.63636H251.257C252.802 3.63636 254.117 3.93134 255.205 4.52131C256.292 5.10464 257.12 5.91667 257.69 6.95739C258.267 7.99148 258.555 9.18466 258.555 10.5369C258.555 11.8892 258.264 13.0824 257.68 14.1165C257.097 15.1506 256.252 15.956 255.145 16.5327C254.045 17.1094 252.712 17.3977 251.148 17.3977H246.027V13.9474H250.452C251.28 13.9474 251.963 13.8049 252.5 13.5199C253.044 13.2282 253.448 12.8272 253.713 12.3168C253.985 11.7997 254.121 11.2064 254.121 10.5369C254.121 9.86079 253.985 9.27083 253.713 8.76704C253.448 8.25663 253.044 7.86222 252.5 7.58381C251.956 7.29877 251.267 7.15625 250.432 7.15625H247.528V24H243.223ZM261.352 24V3.63636H275.074V7.18608H265.657V12.0384H274.368V15.5881H265.657V20.4503H275.113V24H261.352ZM278.496 24V3.63636H286.531C288.068 3.63636 289.381 3.91146 290.468 4.46165C291.562 5.00521 292.394 5.77746 292.964 6.77841C293.54 7.77273 293.829 8.94271 293.829 10.2884C293.829 11.6406 293.537 12.804 292.954 13.7784C292.371 14.7462 291.525 15.4886 290.418 16.0057C289.318 16.5227 287.986 16.7812 286.421 16.7812H281.042V13.321H285.725C286.547 13.321 287.23 13.2083 287.773 12.983C288.317 12.7576 288.721 12.4195 288.987 11.9688C289.258 11.518 289.394 10.9579 289.394 10.2884C289.394 9.61222 289.258 9.04214 288.987 8.57812C288.721 8.11411 288.314 7.76278 287.763 7.52415C287.22 7.27888 286.534 7.15625 285.705 7.15625H282.802V24H278.496ZM289.494 14.733L294.555 24H289.802L284.85 14.733H289.494Z" fill="#1F396B"/>
<path d="M96.1363 40.132C95.4803 40.132 94.8603 40.02 94.2763 39.796C93.7003 39.564 93.1443 39.224 92.6083 38.776L93.3883 37.72C93.9323 38.16 94.4163 38.476 94.8403 38.668C95.2723 38.852 95.7323 38.944 96.2203 38.944C96.5883 38.944 96.9123 38.888 97.1923 38.776C97.4803 38.656 97.7003 38.496 97.8523 38.296C98.0123 38.096 98.0923 37.864 98.0923 37.6C98.0923 37.256 97.9763 36.996 97.7443 36.82C97.5203 36.636 97.1283 36.496 96.5683 36.4L95.0203 36.136C94.2923 36.008 93.7483 35.764 93.3883 35.404C93.0363 35.036 92.8603 34.568 92.8603 34C92.8603 33.496 92.9883 33.056 93.2443 32.68C93.5003 32.296 93.8563 32 94.3123 31.792C94.7763 31.576 95.3243 31.468 95.9563 31.468C96.5883 31.468 97.1883 31.56 97.7563 31.744C98.3243 31.928 98.8483 32.196 99.3283 32.548L98.5963 33.628C98.1723 33.308 97.7363 33.068 97.2883 32.908C96.8403 32.74 96.3803 32.656 95.9083 32.656C95.5723 32.656 95.2763 32.708 95.0203 32.812C94.7723 32.916 94.5763 33.06 94.4323 33.244C94.2963 33.428 94.2283 33.632 94.2283 33.856C94.2283 34.16 94.3283 34.396 94.5283 34.564C94.7363 34.724 95.0683 34.844 95.5243 34.924L97.0243 35.176C97.8723 35.328 98.4963 35.592 98.8963 35.968C99.3043 36.344 99.5083 36.852 99.5083 37.492C99.5083 38.004 99.3643 38.46 99.0763 38.86C98.7963 39.26 98.4043 39.572 97.9003 39.796C97.3963 40.02 96.8083 40.132 96.1363 40.132ZM108.433 40.132C107.841 40.132 107.285 40.024 106.765 39.808C106.253 39.584 105.801 39.276 105.409 38.884C105.025 38.484 104.725 38.024 104.509 37.504C104.293 36.976 104.185 36.408 104.185 35.8C104.185 35.192 104.293 34.628 104.509 34.108C104.725 33.58 105.025 33.12 105.409 32.728C105.801 32.328 106.253 32.02 106.765 31.804C107.285 31.58 107.841 31.468 108.433 31.468C109.025 31.468 109.577 31.58 110.089 31.804C110.609 32.02 111.061 32.328 111.445 32.728C111.837 33.12 112.141 33.58 112.357 34.108C112.573 34.628 112.681 35.192 112.681 35.8C112.681 36.408 112.573 36.976 112.357 37.504C112.141 38.024 111.837 38.484 111.445 38.884C111.061 39.276 110.609 39.584 110.089 39.808C109.577 40.024 109.025 40.132 108.433 40.132ZM108.433 38.836C108.825 38.836 109.189 38.76 109.525 38.608C109.861 38.456 110.153 38.244 110.401 37.972C110.657 37.692 110.853 37.368 110.989 37C111.133 36.632 111.205 36.232 111.205 35.8C111.205 35.368 111.133 34.968 110.989 34.6C110.853 34.232 110.657 33.912 110.401 33.64C110.153 33.36 109.861 33.144 109.525 32.992C109.189 32.84 108.825 32.764 108.433 32.764C108.041 32.764 107.677 32.84 107.341 32.992C107.005 33.144 106.709 33.36 106.453 33.64C106.197 33.912 105.997 34.232 105.853 34.6C105.717 34.968 105.649 35.368 105.649 35.8C105.649 36.232 105.717 36.632 105.853 37C105.997 37.368 106.197 37.692 106.453 37.972C106.709 38.244 107.005 38.456 107.341 38.608C107.677 38.76 108.041 38.836 108.433 38.836ZM117.907 40V31.6H119.347V38.752H123.823V40H117.907ZM131.992 40.132C131.28 40.132 130.656 39.98 130.12 39.676C129.592 39.372 129.184 38.94 128.896 38.38C128.608 37.82 128.464 37.16 128.464 36.4V31.6H129.904V36.4C129.904 36.896 129.988 37.324 130.156 37.684C130.332 38.044 130.576 38.328 130.888 38.536C131.2 38.736 131.568 38.836 131.992 38.836C132.416 38.836 132.784 38.736 133.096 38.536C133.416 38.328 133.66 38.044 133.828 37.684C133.996 37.324 134.08 36.896 134.08 36.4V31.6H135.52V36.4C135.52 37.16 135.376 37.82 135.088 38.38C134.808 38.94 134.404 39.372 133.876 39.676C133.348 39.98 132.72 40.132 131.992 40.132ZM143.063 40V32.848H140.255V31.6H147.311V32.848H144.503V40H143.063ZM152.155 40V31.6H153.595V40H152.155ZM163.019 40.132C162.427 40.132 161.871 40.024 161.351 39.808C160.839 39.584 160.387 39.276 159.995 38.884C159.611 38.484 159.311 38.024 159.095 37.504C158.879 36.976 158.771 36.408 158.771 35.8C158.771 35.192 158.879 34.628 159.095 34.108C159.311 33.58 159.611 33.12 159.995 32.728C160.387 32.328 160.839 32.02 161.351 31.804C161.871 31.58 162.427 31.468 163.019 31.468C163.611 31.468 164.163 31.58 164.675 31.804C165.195 32.02 165.647 32.328 166.031 32.728C166.423 33.12 166.727 33.58 166.943 34.108C167.159 34.628 167.267 35.192 167.267 35.8C167.267 36.408 167.159 36.976 166.943 37.504C166.727 38.024 166.423 38.484 166.031 38.884C165.647 39.276 165.195 39.584 164.675 39.808C164.163 40.024 163.611 40.132 163.019 40.132ZM163.019 38.836C163.411 38.836 163.775 38.76 164.111 38.608C164.447 38.456 164.739 38.244 164.987 37.972C165.243 37.692 165.439 37.368 165.575 37C165.719 36.632 165.791 36.232 165.791 35.8C165.791 35.368 165.719 34.968 165.575 34.6C165.439 34.232 165.243 33.912 164.987 33.64C164.739 33.36 164.447 33.144 164.111 32.992C163.775 32.84 163.411 32.764 163.019 32.764C162.627 32.764 162.263 32.84 161.927 32.992C161.591 33.144 161.295 33.36 161.039 33.64C160.783 33.912 160.583 34.232 160.439 34.6C160.303 34.968 160.235 35.368 160.235 35.8C160.235 36.232 160.303 36.632 160.439 37C160.583 37.368 160.783 37.692 161.039 37.972C161.295 38.244 161.591 38.456 161.927 38.608C162.263 38.76 162.627 38.836 163.019 38.836ZM172.493 40V31.6H173.897L178.277 37.708L178.253 31.6H179.609V40H178.325L173.825 33.724L173.849 40H172.493ZM188.03 40.132C187.374 40.132 186.754 40.02 186.17 39.796C185.594 39.564 185.038 39.224 184.502 38.776L185.282 37.72C185.826 38.16 186.31 38.476 186.734 38.668C187.166 38.852 187.626 38.944 188.114 38.944C188.482 38.944 188.806 38.888 189.086 38.776C189.374 38.656 189.594 38.496 189.746 38.296C189.906 38.096 189.986 37.864 189.986 37.6C189.986 37.256 189.87 36.996 189.638 36.82C189.414 36.636 189.022 36.496 188.462 36.4L186.914 36.136C186.186 36.008 185.642 35.764 185.282 35.404C184.93 35.036 184.754 34.568 184.754 34C184.754 33.496 184.882 33.056 185.138 32.68C185.394 32.296 185.75 32 186.206 31.792C186.67 31.576 187.218 31.468 187.85 31.468C188.482 31.468 189.082 31.56 189.65 31.744C190.218 31.928 190.742 32.196 191.222 32.548L190.49 33.628C190.066 33.308 189.63 33.068 189.182 32.908C188.734 32.74 188.274 32.656 187.802 32.656C187.466 32.656 187.17 32.708 186.914 32.812C186.666 32.916 186.47 33.06 186.326 33.244C186.19 33.428 186.122 33.632 186.122 33.856C186.122 34.16 186.222 34.396 186.422 34.564C186.63 34.724 186.962 34.844 187.418 34.924L188.918 35.176C189.766 35.328 190.39 35.592 190.79 35.968C191.198 36.344 191.402 36.852 191.402 37.492C191.402 38.004 191.258 38.46 190.97 38.86C190.69 39.26 190.298 39.572 189.794 39.796C189.29 40.02 188.702 40.132 188.03 40.132Z" fill="#6B72B2"/>
</svg>
